<?xml version="1.0" standalone="no"?>
<!DOCTYPE svg PUBLIC "-//W3C//DTD SVG 20010904//EN"
 "http://www.w3.org/TR/2001/REC-SVG-20010904/DTD/svg10.dtd">
<svg version="1.0" xmlns="http://www.w3.org/2000/svg"
 width="16.000000pt" height="16.000000pt" viewBox="0 0 16.000000 16.000000"
 preserveAspectRatio="xMidYMid meet">
<metadata>
Created by potrace 1.11, written by Peter Selinger 2001-2013
</metadata>
<g transform="translate(0.000000,16.000000) scale(0.005128,-0.005128)"
fill="#000000" stroke="none">
<path d="M1453 2729 c-303 -387 -295 -379 -364 -410 -35 -16 -68 -29 -74 -29
-5 0 -24 14 -42 30 -18 17 -36 30 -42 30 -15 0 -348 -431 -474 -612 -131 -189
-170 -378 -123 -593 50 -225 177 -383 410 -509 37 -21 65 -32 61 -26 -7 11 0
10 85 -10 19 -5 69 -12 110 -16 41 -3 86 -12 100 -19 14 -6 58 -29 98 -49 132
-67 200 -85 344 -90 111 -4 210 17 388 84 167 62 182 66 335 75 117 7 219 34
292 78 214 130 319 307 330 557 7 145 -12 244 -66 355 -38 76 -157 225 -558
699 l-75 88 -48 -47 -49 -48 -54 22 c-70 29 -109 70 -316 333 -89 114 -167
210 -172 213 -4 3 -48 -45 -96 -106z"/>
</g>
</svg>
